<?xml version="1.0" encoding="iso-8859-1"?>
<!-- Uploaded to: SVG Repo, www.svgrepo.com, Generator: SVG Repo Mixer Tools -->
<svg fill="#000000" height="800px" width="800px" version="1.1" id="Layer_1" xmlns="http://www.w3.org/2000/svg" xmlns:xlink="http://www.w3.org/1999/xlink" 
	 viewBox="0 0 512 512" xml:space="preserve">
<g>
	<g>
		<path d="M458.667,0H53.333c-5.867,0-10.667,4.8-10.667,10.667v64c0,5.867,4.8,10.667,10.667,10.667
			C59.2,85.333,64,80.533,64,74.667V21.333h181.333v469.333h-64c-5.867,0-10.667,4.8-10.667,10.667
			c0,5.867,4.8,10.667,10.667,10.667h149.333c5.867,0,10.667-4.8,10.667-10.667c0-5.867-4.8-10.667-10.667-10.667h-64V21.333H448
			v53.333c0,5.867,4.8,10.667,10.667,10.667c5.867,0,10.667-4.8,10.667-10.667v-64C469.333,4.8,464.533,0,458.667,0z"/>
	</g>
</g>
</svg>